<svg xmlns="http://www.w3.org/2000/svg" width="162" height="50" fill="none"><g clip-path="url(#a)"><path fill="#A1B748" d="M50 25A25 25 0 1 1 25 0v25h25Z"/><path fill="#4F4F4F" d="M44 25a19 19 0 1 0-5.565 13.435L25 25h19Z"/><path fill="url(#b)" d="M50 25A25 25 0 1 1 25 0v25h25Z"/><path fill="#4F4F4F" d="m80.72 35-1.933-6.152h-8.912L67.941 35h-5.449L71.3 9.635h6.24L86.363 35h-5.642Zm-6.45-20.514-3.252 10.389h6.626l-3.251-10.389h-.124Zm36.14 9.862c0 3.457-.996 6.17-2.988 8.138-1.981 1.97-4.734 2.954-8.262 2.954-3.797 0-6.785-1.172-8.965-3.516-2.168-2.344-3.252-5.572-3.252-9.686 0-4.054 1.079-7.242 3.235-9.562 2.168-2.32 5.12-3.48 8.86-3.48 2.952 0 5.454.796 7.505 2.39s3.264 3.674 3.639 6.24h-5.327c-.386-1.324-1.095-2.361-2.126-3.111-1.02-.75-2.245-1.125-3.674-1.125-2.098 0-3.739.756-4.922 2.267-1.184 1.512-1.776 3.616-1.776 6.311 0 2.742.616 4.904 1.846 6.486 1.242 1.582 2.924 2.373 5.045 2.373 1.734 0 3.147-.486 4.236-1.459 1.102-.972 1.682-2.244 1.741-3.814l.017-.404h-5.52v-3.868h10.688v2.866Zm8.824-10.565v8.086h4.571c1.336 0 2.373-.357 3.111-1.072.75-.715 1.125-1.705 1.125-2.97 0-1.231-.387-2.21-1.16-2.936-.774-.739-1.817-1.108-3.129-1.108h-4.518Zm0 11.936V35h-5.308V9.635h10.388c2.895 0 5.145.72 6.75 2.162 1.618 1.43 2.426 3.404 2.426 5.924 0 1.652-.41 3.129-1.23 4.43-.809 1.288-1.934 2.214-3.375 2.777L134.229 35h-6.012l-4.729-9.281h-4.254Zm20.25-12.99c2.204-2.356 5.186-3.534 8.948-3.534 3.761 0 6.738 1.178 8.929 3.534 2.203 2.355 3.305 5.554 3.305 9.597 0 4.031-1.102 7.225-3.305 9.58-2.203 2.356-5.179 3.534-8.929 3.534-3.762 0-6.744-1.178-8.948-3.534-2.191-2.355-3.287-5.549-3.287-9.58 0-4.043 1.096-7.242 3.287-9.598Zm13.905 3.252c-1.231-1.57-2.883-2.356-4.957-2.356-2.075 0-3.733.785-4.975 2.355-1.23 1.57-1.846 3.686-1.846 6.346 0 2.649.616 4.758 1.846 6.328 1.231 1.559 2.889 2.338 4.975 2.338 2.074 0 3.726-.78 4.957-2.338 1.23-1.57 1.845-3.68 1.845-6.328 0-2.66-.615-4.775-1.845-6.346Z"/><path fill="url(#c)" d="M65.076 47.088c-.364 0-.69-.083-.976-.25a1.806 1.806 0 0 1-.674-.697h-.02V47h-.81v-7.046h.85v2.818h.019c.16-.294.38-.523.664-.689.286-.166.607-.249.962-.249.641 0 1.159.24 1.553.718.393.478.59 1.115.59 1.909 0 .797-.197 1.436-.59 1.914-.394.475-.917.713-1.568.713Zm-.166-4.507c-.433 0-.786.174-1.06.522-.273.346-.41.798-.41 1.358 0 .563.137 1.017.41 1.362a1.29 1.29 0 0 0 1.06.518c.45 0 .804-.168 1.065-.503.26-.339.39-.798.39-1.377 0-.576-.13-1.034-.39-1.372-.26-.339-.616-.508-1.065-.508Zm10.193 4.507c-.71 0-1.28-.236-1.709-.708-.43-.475-.644-1.115-.644-1.92 0-.803.215-1.441.644-1.913.43-.475 1-.713 1.71-.713.706 0 1.273.238 1.703.713.43.472.645 1.11.645 1.914 0 .8-.215 1.439-.645 1.914-.43.475-.998.713-1.704.713Zm-1.089-1.245c.27.332.633.498 1.09.498.455 0 .816-.165 1.083-.493.267-.332.4-.795.4-1.387 0-.593-.133-1.053-.4-1.382-.267-.332-.628-.498-1.084-.498-.456 0-.819.166-1.089.498-.267.332-.4.793-.4 1.382 0 .59.133 1.05.4 1.382Zm9.47-5.147h.85v1.226h.986v.698h-.986v3.018c0 .23.05.402.151.512.102.108.261.162.48.162.136 0 .253-.009.35-.025V47c-.11.026-.29.04-.537.04-.465 0-.797-.105-.996-.313-.198-.209-.297-.557-.297-1.045V42.62h-.757v-.698h.757v-1.226Z"/></g><defs><linearGradient id="b" x1="25" x2="25" y1="0" y2="50" gradientUnits="userSpaceOnUse"><stop stop-color="#48B760"/><stop offset="1" stop-color="#6BB748" stop-opacity=".63"/></linearGradient><linearGradient id="c" x1="62" x2="87.298" y1="37" y2="41.223" gradientUnits="userSpaceOnUse"><stop stop-color="#48B760"/><stop offset="1" stop-color="#6BB748"/></linearGradient><clipPath id="a"><path fill="#fff" d="M0 0h162v50H0z"/></clipPath></defs></svg>